# xmcd CD database file
#
# Track frame offsets:
#	150
#	14768
#	32622
#	51622
#	62540
#	81791
#	100107
#	119573
#	129985
#	148829
#	167891
#	182754
#	203994
#	217212
#	240748
#	254879
#	269540
#	295391
#	311830
#
# Disc length: 4451 seconds
#
# Revision: 0
# Processed by: cddbd v1.4PL0 Copyright (c) Steve Scherf et al.
# Submitted via: CDex 1.51
#
DISCID=39116113
DTITLE=Louis Armstrong - At His Very Best(CD Two)
DYEAR=2003
DGENRE=Jazz
TTITLE0=We Have All The Time In The World
TTITLE1=Makin'  Whoopee
TTITLE2=Let's Call The Whole Thing Off(with Ella Fitzgerald)
TTITLE3=Hello Dolly
TTITLE4=Stormy Weather
TTITLE5=Just One Of Those Things
TTITLE6=Willow Weep For Me
TTITLE7=Pretty Little Missy
TTITLE8=Top Hat, White Tie and Tails
TTITLE9=Do Nothin' Til You Hear From Me
TTITLE10=East Of The Sun(And West Of The Moon)
TTITLE11=Body And Soul
TTITLE12=Ain't Misbehavin
TTITLE13=Sweet Lorraine
TTITLE14=Swing Low, Sweet Chariot
TTITLE15=You Can't Lose A Broken Heart(with Billie Holiday)
TTITLE16=Little Girl Blue
TTITLE17=Don't Get Around Much Anymore
TTITLE18=Nobody Knows The Trouble I've Seen
EXTD=YEAR: 2003
EXTT0=
EXTT1=
EXTT2=
EXTT3=
EXTT4=
EXTT5=
EXTT6=
EXTT7=
EXTT8=
EXTT9=
EXTT10=
EXTT11=
EXTT12=
EXTT13=
EXTT14=
EXTT15=
EXTT16=
EXTT17=
EXTT18=
PLAYORDER=
